<svg width="300" height="200" viewBox="0 0 300 200" xmlns="http://www.w3.org/2000/svg">
  <!-- Mother and child -->
  <g transform="translate(100, 40)">
    <!-- Mother's body -->
    <ellipse cx="50" cy="100" rx="25" ry="35" fill="#F39C12"/>
    <!-- Mother's head -->
    <circle cx="50" cy="50" r="25" fill="#D2691E"/>
    <!-- Mother's hair -->
    <path d="M 30 35 Q 50 15 70 35 Q 65 25 50 25 Q 35 25 30 35" fill="#8B4513"/>
    <!-- Mother's eyes (closed, peaceful) -->
    <path d="M 42 45 Q 45 42 48 45" stroke="#333" stroke-width="2" fill="none"/>
    <path d="M 52 45 Q 55 42 58 45" stroke="#333" stroke-width="2" fill="none"/>
    <!-- Mother's smile -->
    <path d="M 40 60 Q 50 65 60 60" stroke="#333" stroke-width="2" fill="none"/>
    
    <!-- Child -->
    <circle cx="70" cy="80" r="15" fill="#FDBCB4"/>
    <circle cx="70" cy="70" r="12" fill="#F4D03F"/>
    <!-- Child's eyes (closed) -->
    <path d="M 66 68 Q 68 66 70 68" stroke="#333" stroke-width="1" fill="none"/>
    <path d="M 70 68 Q 72 66 74 68" stroke="#333" stroke-width="1" fill="none"/>
    <!-- Child's smile -->
    <path d="M 66 75 Q 70 78 74 75" stroke="#333" stroke-width="1" fill="none"/>
    
    <!-- Heart symbol -->
    <path d="M 20 30 Q 15 25 10 30 Q 10 35 20 45 Q 30 35 30 30 Q 25 25 20 30" fill="#FF6B6B"/>
  </g>
</svg>
