<svg width="300" height="200" viewBox="0 0 300 200" xmlns="http://www.w3.org/2000/svg">
  <!-- Family group -->
  <g transform="translate(50, 40)">
    <!-- Parent (center) -->
    <ellipse cx="100" cy="100" rx="25" ry="35" fill="#4A90E2"/>
    <circle cx="100" cy="60" r="25" fill="#FDBCB4"/>
    <!-- Parent's hair -->
    <path d="M 80 45 Q 100 25 120 45 Q 115 35 100 35 Q 85 35 80 45" fill="#D2691E"/>
    <!-- Parent's eyes -->
    <circle cx="95" cy="55" r="3" fill="#333"/>
    <circle cx="105" cy="55" r="3" fill="#333"/>
    <!-- Parent's smile -->
    <path d="M 90 70 Q 100 75 110 70" stroke="#333" stroke-width="2" fill="none"/>
    
    <!-- Child 1 (left) -->
    <ellipse cx="50" cy="120" rx="20" ry="30" fill="#FFB6C1"/>
    <circle cx="50" cy="90" r="20" fill="#FDBCB4"/>
    <!-- Child 1 hair -->
    <circle cx="50" cy="80" r="18" fill="#2F4F4F"/>
    <!-- Child 1 eyes -->
    <circle cx="46" cy="87" r="2" fill="#333"/>
    <circle cx="54" cy="87" r="2" fill="#333"/>
    <!-- Child 1 smile -->
    <path d="M 45 95 Q 50 98 55 95" stroke="#333" stroke-width="1" fill="none"/>
    
    <!-- Child 2 (right) -->
    <ellipse cx="150" cy="120" rx="20" ry="30" fill="#F39C12"/>
    <circle cx="150" cy="90" r="20" fill="#8B4513"/>
    <!-- Child 2 hair -->
    <circle cx="150" cy="80" r="18" fill="#2F4F4F"/>
    <!-- Child 2 eyes -->
    <circle cx="146" cy="87" r="2" fill="#333"/>
    <circle cx="154" cy="87" r="2" fill="#333"/>
    <!-- Child 2 smile -->
    <path d="M 145 95 Q 150 98 155 95" stroke="#333" stroke-width="1" fill="none"/>
    
    <!-- Heart above family -->
    <path d="M 100 20 Q 95 15 90 20 Q 90 25 100 35 Q 110 25 110 20 Q 105 15 100 20" fill="#FF6B6B"/>
  </g>
</svg>
